<svg xmlns="http://www.w3.org/2000/svg" viewBox="0 0 256 193">
  <path fill="#4285f4" d="M58.18 192.05V93.14L27.51 65.08 0 49.49v125.1c0 9.65 7.82 17.46 17.46 17.46z"/>
  <path fill="#34a853" d="M197.82 192.05h40.73c9.65 0 17.46-7.82 17.46-17.46V49.49l-31.16 17.81-27.02 25.84z"/>
  <path fill="#ea4335" d="m58.18 93.14-4.17-38.65 4.17-36.98L128 69.87l69.82-52.36 4.67 34.98-4.67 40.65L128 145.5z"/>
  <path fill="#fbbc04" d="M197.82 17.51v75.63L256 49.49V26.24c0-21.56-24.62-33.85-41.87-20.91z"/>
  <path fill="#c5221f" d="M0 49.49 58.18 93.14V17.51L41.87 5.33C24.61-7.6 0 4.68 0 26.24z"/>
</svg>
